<svg width="60" height="30" viewBox="0 0 60 30" fill="none" xmlns="http://www.w3.org/2000/svg">
<rect width="60" height="30" rx="2" fill="#EB001B"/>
<path d="M3.72809 15.574H9.72209V17.698H3.72809V15.574ZM21.821 22H12.371V20.452L16.907 16.168C17.495 15.604 17.945 15.1 18.257 14.656C18.569 14.2 18.725 13.684 18.725 13.108C18.725 12.532 18.551 12.064 18.203 11.704C17.867 11.332 17.381 11.146 16.745 11.146C16.121 11.146 15.629 11.344 15.269 11.74C14.921 12.136 14.747 12.646 14.747 13.27V14.026H12.407V13.216C12.407 12.628 12.503 12.076 12.695 11.56C12.887 11.044 13.169 10.6 13.541 10.228C13.913 9.844 14.369 9.544 14.909 9.328C15.449 9.112 16.061 9.004 16.745 9.004C17.441 9.004 18.059 9.106 18.599 9.31C19.139 9.502 19.595 9.778 19.967 10.138C20.351 10.498 20.639 10.93 20.831 11.434C21.035 11.926 21.137 12.466 21.137 13.054C21.137 13.558 21.065 14.02 20.921 14.44C20.789 14.848 20.597 15.238 20.345 15.61C20.093 15.97 19.799 16.324 19.463 16.672C19.127 17.02 18.761 17.38 18.365 17.752L16.097 19.894H21.821V22ZM28.7669 8.986C29.4869 8.986 30.1349 9.094 30.7109 9.31C31.2989 9.526 31.7909 9.838 32.1869 10.246C32.5949 10.654 32.9069 11.152 33.1229 11.74C33.3509 12.328 33.4649 12.988 33.4649 13.72V17.5C33.4649 18.256 33.3509 18.928 33.1229 19.516C32.9069 20.104 32.5949 20.602 32.1869 21.01C31.7789 21.406 31.2809 21.712 30.6929 21.928C30.1169 22.132 29.4749 22.234 28.7669 22.234C28.0589 22.234 27.4109 22.132 26.8229 21.928C26.2469 21.712 25.7549 21.406 25.3469 21.01C24.9389 20.602 24.6209 20.104 24.3929 19.516C24.1769 18.928 24.0689 18.256 24.0689 17.5V13.72C24.0689 12.988 24.1769 12.328 24.3929 11.74C24.6209 11.152 24.9329 10.654 25.3289 10.246C25.7369 9.838 26.2289 9.526 26.8049 9.31C27.3929 9.094 28.0469 8.986 28.7669 8.986ZM28.7669 20.074C29.5349 20.074 30.1109 19.828 30.4949 19.336C30.8909 18.844 31.0889 18.22 31.0889 17.464V13.756C31.0889 13 30.8909 12.376 30.4949 11.884C30.1109 11.392 29.5349 11.146 28.7669 11.146C27.9869 11.146 27.4049 11.392 27.0209 11.884C26.6369 12.376 26.4449 13 26.4449 13.756V17.464C26.4449 18.22 26.6369 18.844 27.0209 19.336C27.4049 19.828 27.9869 20.074 28.7669 20.074ZM44.0692 15.736C43.5892 15.736 43.1452 15.652 42.7372 15.484C42.3292 15.304 41.9692 15.064 41.6572 14.764C41.3572 14.464 41.1172 14.11 40.9372 13.702C40.7692 13.294 40.6852 12.85 40.6852 12.37C40.6852 11.89 40.7692 11.446 40.9372 11.038C41.1172 10.63 41.3572 10.276 41.6572 9.976C41.9692 9.676 42.3292 9.442 42.7372 9.274C43.1452 9.094 43.5892 9.004 44.0692 9.004C44.5492 9.004 44.9932 9.094 45.4012 9.274C45.8092 9.442 46.1632 9.676 46.4632 9.976C46.7752 10.276 47.0152 10.63 47.1832 11.038C47.3632 11.446 47.4532 11.89 47.4532 12.37C47.4532 12.85 47.3632 13.294 47.1832 13.702C47.0152 14.11 46.7752 14.464 46.4632 14.764C46.1632 15.064 45.8092 15.304 45.4012 15.484C44.9932 15.652 44.5492 15.736 44.0692 15.736ZM52.2232 9.22H54.3652L45.1492 22H43.0072L52.2232 9.22ZM44.0692 14.026C44.5372 14.026 44.9152 13.87 45.2032 13.558C45.5032 13.234 45.6532 12.838 45.6532 12.37C45.6532 11.914 45.5032 11.53 45.2032 11.218C44.9152 10.894 44.5372 10.732 44.0692 10.732C43.6012 10.732 43.2232 10.894 42.9352 11.218C42.6472 11.53 42.5032 11.914 42.5032 12.37C42.5032 12.838 42.6472 13.234 42.9352 13.558C43.2232 13.87 43.6012 14.026 44.0692 14.026ZM53.3032 22.252C52.8232 22.252 52.3792 22.168 51.9712 22C51.5632 21.82 51.2032 21.58 50.8912 21.28C50.5912 20.98 50.3512 20.626 50.1712 20.218C50.0032 19.81 49.9192 19.366 49.9192 18.886C49.9192 18.406 50.0032 17.962 50.1712 17.554C50.3512 17.146 50.5912 16.792 50.8912 16.492C51.2032 16.192 51.5632 15.958 51.9712 15.79C52.3792 15.61 52.8232 15.52 53.3032 15.52C53.7832 15.52 54.2272 15.61 54.6352 15.79C55.0432 15.958 55.3972 16.192 55.6972 16.492C56.0092 16.792 56.2492 17.146 56.4172 17.554C56.5972 17.962 56.6872 18.406 56.6872 18.886C56.6872 19.366 56.5972 19.81 56.4172 20.218C56.2492 20.626 56.0092 20.98 55.6972 21.28C55.3972 21.58 55.0432 21.82 54.6352 22C54.2272 22.168 53.7832 22.252 53.3032 22.252ZM53.3032 20.524C53.7712 20.524 54.1492 20.368 54.4372 20.056C54.7372 19.732 54.8872 19.342 54.8872 18.886C54.8872 18.418 54.7372 18.028 54.4372 17.716C54.1492 17.392 53.7712 17.23 53.3032 17.23C52.8472 17.23 52.4692 17.392 52.1692 17.716C51.8812 18.028 51.7372 18.418 51.7372 18.886C51.7372 19.342 51.8812 19.732 52.1692 20.056C52.4692 20.368 52.8472 20.524 53.3032 20.524Z" fill="white"/>
</svg>
