<svg width="139" height="32" viewBox="0 0 139 32" fill="none" xmlns="http://www.w3.org/2000/svg">
<path d="M62.7951 19.5283V15.1634C62.7951 13.5164 61.7475 12.4078 60.0615 12.3932C59.5813 12.3621 59.1016 12.4607 58.6723 12.6787C58.2431 12.8967 57.88 13.2262 57.6209 13.6328C57.3849 13.2383 57.0471 12.9149 56.6431 12.6968C56.2391 12.4786 55.7839 12.3737 55.3255 12.3932C54.9263 12.3739 54.529 12.4593 54.1728 12.6409C53.8165 12.8226 53.5137 13.0943 53.2941 13.4291V12.5562H51.7822V19.5283H53.3086V15.6668C53.3086 14.4563 53.9761 13.8162 55.0092 13.8162C56.0423 13.8162 56.5211 14.4709 56.5211 15.6523V19.5283H58.0388V15.6668C58.0388 14.4563 58.7353 13.8162 59.7393 13.8162C60.7434 13.8162 61.2658 14.4709 61.2658 15.6523V19.5283H62.7951ZM85.3809 12.562H82.9113V10.4494H81.3849V12.562H79.9746V13.9471H81.3849V17.1218C81.3849 18.7397 82.0088 19.7029 83.7964 19.7029C84.4641 19.705 85.1188 19.5184 85.6856 19.1645L85.2503 17.8667C84.8447 18.109 84.3844 18.2442 83.9125 18.2596C83.158 18.2596 82.9084 17.794 82.9084 17.0956V13.9471H85.378L85.3809 12.562ZM98.2742 12.3874C97.9056 12.3766 97.5409 12.4658 97.2186 12.6456C96.8963 12.8254 96.6284 13.089 96.4431 13.4088V12.562H94.9457V19.5283H96.4576V15.6232C96.4576 14.4592 96.9509 13.8307 97.9405 13.8307C98.2642 13.826 98.5857 13.8853 98.8865 14.0053L99.3508 12.5766C99.0053 12.4526 98.6412 12.3887 98.2742 12.3874ZM78.7819 13.1149C77.9259 12.6049 76.9417 12.3524 75.9467 12.3874C74.1881 12.3874 73.0447 13.2342 73.0447 14.6164C73.0447 15.7541 73.8863 16.4525 75.4417 16.6708L76.1527 16.7726C76.9798 16.889 77.3744 17.1072 77.3744 17.5001C77.3744 18.0384 76.8231 18.3469 75.79 18.3469C74.9565 18.3734 74.1385 18.1171 73.4684 17.6194L72.7807 18.7979C73.6611 19.4152 74.7161 19.7324 75.79 19.7029C77.7952 19.7029 78.9589 18.7542 78.9589 17.4302C78.9589 16.2052 78.0419 15.565 76.5329 15.3468L75.8219 15.2449C75.169 15.1576 74.6437 15.0267 74.6437 14.5611C74.6437 14.0519 75.137 13.7463 75.967 13.7463C76.7274 13.7576 77.4724 13.9629 78.1318 14.3429L78.7819 13.1149ZM119.27 12.3874C118.901 12.3766 118.536 12.4658 118.214 12.6456C117.892 12.8254 117.624 13.089 117.439 13.4088V12.562H115.941V19.5283H117.453V15.6232C117.453 14.4592 117.946 13.8307 118.936 13.8307C119.26 13.826 119.581 13.8853 119.882 14.0053L120.346 12.5766C120.001 12.4526 119.637 12.3887 119.27 12.3874ZM99.8006 16.0451C99.8006 18.1577 101.269 19.7029 103.506 19.7029C104.414 19.7479 105.305 19.451 106.005 18.8706L105.279 17.6456C104.757 18.0447 104.12 18.2641 103.463 18.2712C102.256 18.2712 101.371 17.3808 101.371 16.0422C101.371 14.7037 102.259 13.8278 103.463 13.8133C104.12 13.8204 104.757 14.0398 105.279 14.4389L106.005 13.2138C105.305 12.6334 104.414 12.3366 103.506 12.3816C101.269 12.3816 99.8006 13.9267 99.8006 16.0393V16.0451ZM113.956 16.0451V12.5533H112.444V13.4C112.187 13.0665 111.853 12.7997 111.471 12.622C111.09 12.4443 110.671 12.3609 110.251 12.3787C108.303 12.3787 106.768 13.9093 106.768 16.0364C106.768 18.1635 108.295 19.6941 110.251 19.6941C110.671 19.7119 111.09 19.6285 111.471 19.4508C111.853 19.2731 112.187 19.0063 112.444 18.6728V19.5166H113.956V16.0451ZM108.332 16.0451C108.332 14.8201 109.13 13.8162 110.439 13.8162C111.69 13.8162 112.531 14.7793 112.531 16.0451C112.531 17.3109 111.69 18.2741 110.439 18.2741C109.13 18.2741 108.332 17.2673 108.332 16.0451ZM90.0907 12.3874C88.0594 12.3874 86.6316 13.8744 86.6316 16.0451C86.6316 18.2596 88.1145 19.7029 90.1923 19.7029C91.2298 19.7393 92.2443 19.3912 93.042 18.7251L92.302 17.6019C91.7248 18.065 91.0098 18.3211 90.2707 18.3294C89.2956 18.3294 88.4105 17.8784 88.1929 16.6242H93.3525C93.367 16.4351 93.3815 16.2459 93.3815 16.0422C93.3815 13.8715 92.0292 12.3845 90.082 12.3845L90.0907 12.3874ZM90.0617 13.7434C91.0368 13.7434 91.6607 14.3545 91.8203 15.4341H88.219C88.3786 14.4272 88.988 13.7434 90.0646 13.7434H90.0617ZM127.976 16.0451V9.7627H126.464V13.4059C126.206 13.0723 125.872 12.8055 125.49 12.6278C125.109 12.4502 124.69 12.3667 124.27 12.3845C122.323 12.3845 120.787 13.9151 120.787 16.0422C120.787 18.1693 122.314 19.6999 124.27 19.6999C124.69 19.7177 125.109 19.6343 125.49 19.4566C125.872 19.2789 126.206 19.0121 126.464 18.6786V19.5224H127.976V16.0451ZM129.743 18.8852C129.803 18.8849 129.862 18.8968 129.917 18.9201C129.97 18.9428 130.018 18.9754 130.059 19.0161C130.1 19.0561 130.132 19.1035 130.155 19.1558C130.178 19.21 130.19 19.2684 130.19 19.3275C130.19 19.3865 130.178 19.4449 130.155 19.4992C130.132 19.5514 130.1 19.5988 130.059 19.6388C130.018 19.6794 129.97 19.712 129.917 19.7349C129.862 19.7584 129.803 19.7703 129.743 19.7698C129.654 19.7709 129.568 19.7458 129.493 19.6977C129.419 19.6495 129.36 19.5805 129.325 19.4992C129.302 19.4449 129.29 19.3865 129.29 19.3275C129.29 19.2685 129.302 19.2101 129.325 19.1558C129.37 19.049 129.456 18.9643 129.563 18.9201C129.622 18.8956 129.685 18.8837 129.749 18.8852H129.743ZM129.743 19.6708C129.789 19.6716 129.834 19.6627 129.876 19.6447C129.916 19.6273 129.953 19.6026 129.984 19.5719C130.048 19.507 130.084 19.4191 130.084 19.3275C130.084 19.2359 130.048 19.148 129.984 19.0831C129.953 19.0522 129.916 19.0275 129.876 19.0103C129.834 18.9925 129.789 18.9836 129.743 18.9841C129.696 18.9835 129.65 18.9924 129.606 19.0103C129.555 19.0325 129.509 19.067 129.474 19.1108C129.438 19.1547 129.414 19.2065 129.403 19.2619C129.392 19.3172 129.395 19.3744 129.411 19.4285C129.428 19.4825 129.457 19.5317 129.496 19.5719C129.528 19.603 129.565 19.6277 129.606 19.6447C129.651 19.6634 129.7 19.6724 129.749 19.6708H129.743ZM129.769 19.118C129.812 19.1149 129.856 19.1273 129.891 19.1529C129.905 19.1643 129.917 19.179 129.924 19.1957C129.932 19.2124 129.935 19.2306 129.934 19.2489C129.935 19.2647 129.932 19.2803 129.926 19.2949C129.92 19.3094 129.911 19.3225 129.9 19.3333C129.873 19.357 129.839 19.3714 129.804 19.374L129.937 19.5283H129.833L129.708 19.374H129.667V19.5283H129.58V19.1209L129.769 19.118ZM129.667 19.1936V19.3042H129.769C129.787 19.3095 129.806 19.3095 129.824 19.3042C129.831 19.2997 129.836 19.2936 129.84 19.2865C129.843 19.2794 129.845 19.2714 129.844 19.2635C129.845 19.2555 129.843 19.2476 129.84 19.2404C129.836 19.2333 129.831 19.2272 129.824 19.2227C129.806 19.2175 129.787 19.2175 129.769 19.2227L129.667 19.1936ZM122.357 16.0451C122.357 14.8201 123.155 13.8162 124.464 13.8162C125.715 13.8162 126.556 14.7793 126.556 16.0451C126.556 17.3109 125.715 18.2741 124.464 18.2741C123.155 18.2741 122.357 17.2673 122.357 16.0451ZM71.3123 16.0451V12.5533H69.8004V13.4C69.5425 13.0693 69.2099 12.805 68.8298 12.6289C68.4498 12.4528 68.0335 12.37 67.6152 12.3874C65.668 12.3874 64.1329 13.918 64.1329 16.0451C64.1329 18.1723 65.6593 19.7029 67.6152 19.7029C68.0357 19.7206 68.4542 19.6372 68.8359 19.4595C69.2176 19.2818 69.5513 19.015 69.8091 18.6815V19.5254H71.321L71.3123 16.0451ZM65.6883 16.0451C65.6883 14.8201 66.4864 13.8162 67.7951 13.8162C69.0459 13.8162 69.8874 14.7793 69.8874 16.0451C69.8874 17.3109 69.0459 18.2741 67.7951 18.2741C66.4864 18.2741 65.6883 17.2702 65.6883 16.0451Z" fill="white"/>
<path d="M32.4901 7.76318H23.349V24.236H32.4901V7.76318Z" fill="#FF5F00"/>
<path d="M23.9294 16.0044C23.9281 14.4182 24.2867 12.8525 24.978 11.4258C25.6693 9.99911 26.6752 8.74878 27.9195 7.76944C26.3784 6.55491 24.5275 5.79967 22.5785 5.59003C20.6295 5.38039 18.661 5.72481 16.898 6.58393C15.135 7.44304 13.6486 8.78218 12.6087 10.4483C11.5687 12.1144 11.0173 14.0403 11.0173 16.0059C11.0173 17.9714 11.5687 19.8973 12.6087 21.5634C13.6486 23.2295 15.135 24.5687 16.898 25.4278C18.661 26.2869 20.6295 26.6313 22.5785 26.4217C24.5275 26.2121 26.3784 25.4568 27.9195 24.2423C26.6748 23.2626 25.6687 22.0118 24.9774 20.5846C24.2861 19.1574 23.9277 17.5911 23.9294 16.0044Z" fill="#EB001B"/>
<path d="M44.8234 16.0041C44.8234 17.9698 44.2718 19.8958 43.2317 21.562C42.1916 23.2282 40.7049 24.5673 38.9417 25.4263C37.1785 26.2853 35.2098 26.6295 33.2607 26.4196C31.3116 26.2096 29.4607 25.454 27.9196 24.2391C29.1635 23.2589 30.1691 22.0082 30.8606 20.5814C31.552 19.1546 31.9113 17.589 31.9113 16.0027C31.9113 14.4163 31.552 12.8507 30.8606 11.4239C30.1691 9.99714 29.1635 8.74647 27.9196 7.76625C29.4609 6.5512 31.312 5.79556 33.2614 5.58573C35.2108 5.37589 37.1797 5.72034 38.943 6.57968C40.7063 7.43903 42.1929 8.77859 43.2328 10.4452C44.2727 12.1118 44.8239 14.0382 44.8234 16.0041Z" fill="#F79E1B"/>
<path d="M43.8194 22.4901V22.1526H43.9558V22.0857H43.6163V22.1555H43.7527V22.4931L43.8194 22.4901ZM44.4898 22.4901V22.0828H44.3998L44.2779 22.3738L44.156 22.0828H44.0487V22.4901H44.1096V22.1846L44.2228 22.4494H44.3011L44.4143 22.1846V22.4931L44.4898 22.4901Z" fill="#F79E1B"/>
</svg>
