<svg width="71" height="19" viewBox="0 0 71 19" fill="none" xmlns="http://www.w3.org/2000/svg">
<path d="M12.5795 3.09491C12.3498 2.63404 11.9864 2.25393 11.5352 1.96849C11.0646 1.68028 10.5091 1.47838 9.87416 1.35864C9.22811 1.24168 8.4818 1.18877 7.61715 1.18042L3.62527 1.18321C3.21034 1.18878 2.80378 1.5118 2.70631 1.9128L0.0204559 13.6114C-0.077009 14.0068 0.183362 14.3382 0.598284 14.3382H2.50999C2.92491 14.3382 3.33566 14.0166 3.42755 13.6114L4.08335 10.771C4.17107 10.3755 4.58042 10.0456 4.99952 10.0456H5.54672C7.88448 10.0428 9.69455 9.56519 10.995 8.60864C12.3024 7.6507 12.9471 6.38505 12.9471 4.81725C12.9457 4.13082 12.8329 3.55439 12.5795 3.09491ZM8.45674 6.91693C7.87891 7.3402 7.07552 7.55184 6.03961 7.55184H5.57178C5.15546 7.55184 4.90066 7.22325 4.99117 6.82225L5.56621 4.33828C5.64697 3.94007 6.06607 3.61008 6.47681 3.61287L7.10337 3.60869C7.83436 3.60869 8.39269 3.73539 8.76584 3.98045C9.13482 4.22272 9.32 4.6084 9.31722 5.1194C9.32836 5.89633 9.03178 6.49365 8.45674 6.91693Z" fill="white"/>
<path d="M67.0768 2.09689L66.9571 2.13309L66.7969 2.15537L66.6006 2.12473L66.5004 2.02727L66.4544 1.87411L66.4516 1.64437V0.793643H67.0907V0.530486H66.4516V0H66.1356V0.530486H65.9211V0.793643H66.1356V1.78361L66.2832 2.27372L66.7176 2.42966L66.9 2.41434L67.0935 2.37675V2.09689H67.0768Z" fill="white"/>
<path d="M70.0408 0.665017L69.5842 0.477051L69.2472 0.545276L68.9047 0.776405L68.7056 0.555022L68.3825 0.478442L68.0721 0.546668L67.7783 0.736028V0.529958H67.4678V2.38875H67.7769V1.00058L68.0372 0.839061L68.2962 0.775013L68.5079 0.812607L68.6123 0.919818L68.6582 1.09804L68.6736 1.32778V2.39015H68.984V1.20107L68.9785 1.10222L68.9729 1.01171L69.2375 0.843238L69.4992 0.777799L69.7039 0.815391L69.8153 0.922604L69.8543 1.10222L69.8752 1.32917V2.39154H70.187V1.18437L70.0408 0.665017Z" fill="white"/>
<path d="M21.7984 4.76757C21.0772 4.361 19.9382 4.15771 18.3816 4.15771C17.6116 4.15771 16.8444 4.21759 16.0689 4.33733C15.4966 4.42505 15.4409 4.44175 15.0886 4.51833C14.3618 4.67706 14.2477 5.40248 14.2477 5.40248L14.0138 6.3646C13.8815 6.97863 14.2351 6.95496 14.3827 6.90344C14.7002 6.80876 14.877 6.7113 15.5258 6.56649C16.1454 6.42586 16.7985 6.32004 17.3164 6.327C18.0808 6.327 18.6656 6.40776 19.0555 6.57206C19.4398 6.73914 19.6319 7.02597 19.6319 7.44089L19.5985 7.71101L19.3228 7.88087C18.2382 7.9491 17.4543 8.04935 16.5033 8.18719C15.5732 8.31668 14.7573 8.54364 14.0792 8.85413C13.351 9.17437 12.8108 9.60461 12.4334 10.1518C12.0686 10.7018 11.8862 11.3687 11.8862 12.1512C11.8862 12.8878 12.1508 13.4962 12.6646 13.9669C13.1811 14.4291 13.8634 14.6547 14.6793 14.6547C15.1959 14.6519 15.5955 14.6115 15.8795 14.5433L16.8054 14.2244L17.5893 13.79L18.3106 13.3138L18.3203 13.3278L18.2479 13.6341L18.2437 13.6466V13.6494C18.1658 14.0226 18.3913 14.3289 18.7547 14.3651L18.7617 14.3734H18.7951H20.2613H20.5369L20.562 14.3623C20.9435 14.3177 21.3013 14.0114 21.3849 13.6466L22.7786 7.61354L22.851 7.12204L22.8845 6.66117C22.89 5.80626 22.521 5.17274 21.7984 4.76757ZM18.7157 11.5511L18.4178 11.9438L17.6659 12.3322C17.3122 12.4756 16.9767 12.5481 16.6662 12.5481C16.1956 12.5481 15.8266 12.4798 15.5774 12.3406L15.2084 11.6235C15.2084 11.2351 15.2975 10.9273 15.4883 10.6906L16.2986 10.1393C16.6453 10.0223 17.0686 9.92346 17.5587 9.85523C17.9959 9.80093 18.8592 9.70208 18.9719 9.69929L19.1042 9.93181C19.0777 10.0641 18.8327 11.0889 18.7157 11.5511Z" fill="white"/>
<path d="M56.5211 4.77555C55.7957 4.36898 54.6581 4.16431 53.1056 4.16431C52.3356 4.16431 51.5671 4.22418 50.7943 4.3481C50.2207 4.43164 50.1636 4.44974 49.8099 4.52493C49.0845 4.68226 48.9717 5.41047 48.9717 5.41047L48.7378 6.37119C48.6069 6.98522 48.9522 6.95737 49.1137 6.91003C49.4326 6.81535 49.6038 6.72206 50.2471 6.57169C50.8639 6.43245 51.5225 6.32942 52.0419 6.33221C52.8035 6.33221 53.3883 6.41436 53.7767 6.57865C54.1638 6.74574 54.3532 7.03535 54.3532 7.44609L54.3239 7.71482L54.051 7.88886C52.9552 7.9543 52.17 8.05455 51.2287 8.19239C50.3014 8.32188 49.4827 8.54744 48.8032 8.85933C48.0778 9.18096 47.5306 9.6112 47.1575 10.1598C46.7885 10.7098 46.6089 11.3753 46.6089 12.1509C46.6089 12.893 46.8707 13.5014 47.3914 13.9693C47.9107 14.4301 48.586 14.6613 49.402 14.6613C49.9157 14.6557 50.3153 14.6223 50.6008 14.5485L51.5239 14.2338L52.3148 13.7994L53.0304 13.3177L53.043 13.333L52.9775 13.6421L52.9706 13.6476L52.9734 13.6532C52.887 14.0264 53.114 14.3355 53.4816 14.3689L53.4843 14.3758H53.5178C53.7586 14.3758 54.5913 14.3758 54.9881 14.3758H55.2582L55.2874 14.3661C55.6648 14.3202 56.0212 14.0138 56.1006 13.6449L57.4985 7.62013L57.5723 7.12585L57.6127 6.66359C57.6141 5.81146 57.2493 5.18073 56.5211 4.77555ZM53.4454 11.5591L53.1349 11.9559L52.3899 12.3416C52.0363 12.4836 51.6993 12.5574 51.3944 12.5574C50.9085 12.5574 50.5493 12.4878 50.307 12.3486L49.9338 11.6343C49.9338 11.2444 50.0243 10.9395 50.2067 10.6986C50.3919 10.4717 50.6746 10.2851 51.0254 10.1487C51.368 10.0317 51.7912 9.93701 52.2841 9.866C52.7185 9.8117 53.579 9.71006 53.6904 9.70867L53.8255 9.94119C53.806 10.0735 53.5595 11.0941 53.4454 11.5591Z" fill="white"/>
<path d="M47.2966 3.13878C47.0571 2.67513 46.6979 2.30058 46.244 2.00819C45.7789 1.71858 45.2276 1.51529 44.5829 1.39834C43.9494 1.28556 43.1933 1.22429 42.3343 1.2229L38.3368 1.22568C37.9205 1.23265 37.5209 1.55567 37.4248 1.9525L34.7362 13.6566C34.6387 14.0535 34.906 14.3821 35.3126 14.3821L37.2271 14.3793C37.6337 14.3821 38.05 14.0562 38.146 13.6552L38.7935 10.8134C38.8882 10.418 39.2989 10.0852 39.7124 10.088H40.2596C42.6002 10.088 44.4144 9.60627 45.7205 8.65251C47.0112 7.68761 47.6642 6.42474 47.6642 4.85556C47.6572 4.17191 47.5389 3.59408 47.2966 3.13878ZM43.1738 6.96637C42.5974 7.38129 41.7926 7.59293 40.7623 7.59293H40.2861C39.8754 7.5971 39.6094 7.26294 39.7013 6.86473L40.2805 4.38494C40.3655 3.98812 40.7804 3.65535 41.1939 3.65952L41.8135 3.65535C42.5487 3.65952 43.1001 3.78066 43.476 4.02571C43.8505 4.27077 44.0274 4.65506 44.0315 5.16466C44.0357 5.94159 43.7475 6.54031 43.1738 6.96637Z" fill="white"/>
<path d="M63.6887 2.04616C63.7764 1.64656 63.5258 1.32214 63.115 1.32771H61.4024C61.0515 1.32771 60.7355 1.58808 60.5809 1.90832L60.4862 2.05591L60.3999 2.43463L58.0065 13.3145L57.9285 13.6487L57.9313 13.657C57.8519 14.0149 58.0719 14.285 58.4116 14.3365L58.4409 14.3769H60.2189C60.567 14.3769 60.8942 14.1123 61.0432 13.7865L61.1351 13.6473L63.6942 2.04756L63.6887 2.04616Z" fill="white"/>
<path d="M34.7891 4.30387C34.3366 4.30944 32.4973 4.30387 32.4973 4.30387C32.0851 4.30387 31.556 4.63664 31.2943 5.03346C31.2943 5.03346 28.5569 9.73127 28.291 10.2033L27.9735 10.1991L27.1214 5.06549C27.0267 4.6617 26.6048 4.3164 26.0799 4.3164L24.3673 4.31918C23.9552 4.31918 23.7018 4.64778 23.795 5.04878C23.795 5.04878 25.0955 12.4492 25.3559 14.191C25.477 15.1517 25.3406 15.323 25.3406 15.323L23.6474 18.272C23.3968 18.673 23.5319 19.0002 23.9426 19.0002L25.9226 18.9974C26.3347 18.9974 26.8763 18.673 27.1214 18.2706L34.7376 5.38851C34.7376 5.38991 35.4699 4.28855 34.7891 4.30387Z" fill="white"/>
</svg>
