<svg width="35" height="35" viewBox="0 0 35 35" fill="none" xmlns="http://www.w3.org/2000/svg">
<circle cx="17.5" cy="17.5" r="17" fill="white" stroke="#F1F1F1"/>
<path d="M16.84 13.3439L17.5 14.5663L18.1599 13.344C18.4454 12.8152 18.9179 12.1141 19.6064 11.5745C20.3113 11.0219 21.0946 10.75 21.9531 10.75C24.3508 10.75 26.25 12.731 26.25 15.5481C26.25 17.0291 25.6735 18.3053 24.5538 19.6746C23.4151 21.0672 21.7713 22.4901 19.7055 24.2744L19.7055 24.2744L19.7045 24.2752C19.0389 24.8501 18.2853 25.5011 17.5 26.1956C16.7151 25.5014 15.9618 24.8507 15.2968 24.2763L15.295 24.2748L15.2949 24.2748C13.2289 22.4903 11.585 21.0673 10.4463 19.6746C9.32654 18.3053 8.75 17.0291 8.75 15.5481C8.75 12.731 10.6492 10.75 13.0469 10.75C13.9054 10.75 14.6887 11.0219 15.3936 11.5745L15.8563 10.9842L15.3936 11.5745C16.0821 12.1141 16.5546 12.8152 16.84 13.3439Z" stroke="#101820" stroke-width="1.5"/>
</svg>
