<svg width="15" height="15" viewBox="0 0 15 15" fill="none" xmlns="http://www.w3.org/2000/svg">
<path d="M10.861 0H4.139C3.04163 0.00117429 1.98954 0.437624 1.21358 1.21358C0.437624 1.98954 0.00117429 3.04163 0 4.139V10.8599C0.00117373 11.9574 0.437588 13.0096 1.21352 13.7857C1.98944 14.5618 3.04153 14.9985 4.139 15H10.861C11.9585 14.9985 13.0106 14.5618 13.7865 13.7857C14.5624 13.0096 14.9988 11.9574 15 10.8599V4.139C14.9988 3.04163 14.5624 1.98954 13.7864 1.21358C13.0105 0.437624 11.9584 0.00117429 10.861 0ZM7.49944 10.9009C6.82073 10.9009 6.15725 10.6996 5.59293 10.3225C5.02862 9.94545 4.5888 9.40947 4.32912 8.78239C4.06943 8.15532 4.00155 7.46532 4.13404 6.79966C4.26653 6.134 4.59345 5.52257 5.07346 5.04272C5.55346 4.56288 6.16498 4.23615 6.83069 4.10388C7.49639 3.9716 8.18637 4.03971 8.81336 4.2996C9.44036 4.55948 9.97619 4.99947 10.3531 5.56391C10.73 6.12835 10.9311 6.79189 10.9309 7.47061C10.9288 8.37995 10.5666 9.25144 9.92349 9.89433C9.28039 10.5372 8.40878 10.8992 7.49944 10.9009ZM12.5523 3.83734C12.3926 3.99694 12.1824 4.09622 11.9577 4.11825C11.733 4.14029 11.5076 4.08372 11.3199 3.95819C11.1322 3.83265 10.9938 3.64592 10.9284 3.42981C10.863 3.2137 10.8745 2.98158 10.961 2.77301C11.0475 2.56444 11.2037 2.39232 11.4029 2.28598C11.602 2.17963 11.832 2.14566 12.0534 2.18983C12.2748 2.234 12.4741 2.35359 12.6173 2.52821C12.7604 2.70284 12.8386 2.9217 12.8384 3.14751C12.8373 3.4061 12.7346 3.65388 12.5523 3.83734Z" fill="#101820"/>
</svg>
