<svg width="109" height="20" viewBox="0 0 109 20" fill="none" xmlns="http://www.w3.org/2000/svg">
<path fill-rule="evenodd" clip-rule="evenodd" d="M0 0.641903H0.347286H0.763889H2.84656L8.53968 15.8357L14.5797 0.71149H17.0097V12.6298L14.5797 15.7661V2.8026L7.84545 19.5298H7.15123L0.763889 1.75705V19.4598H0.000348331V0.641903H0ZM78.7994 12.072H76.925V13.6054V17.7873V19.6689H76.4391V19.3203C76.4391 18.9021 76.3698 18.5538 76.2308 18.3447C75.7449 17.8569 75.0506 17.8569 74.495 18.2751C73.4535 19.0416 72.2734 19.5993 70.9543 19.948C70.1907 20.0176 69.3575 20.0176 68.5243 19.948C66.5803 19.6693 64.7752 18.8328 63.3175 17.5086C61.4431 15.6965 60.3323 13.3267 60.124 10.8177L63.3871 6.63584C62.8316 9.42352 62.9705 12.3511 63.9427 15.1388C64.4983 17.3691 66.3034 18.972 68.525 19.4598C69.4275 19.5993 70.5384 19.6689 71.3716 19.3902C71.9272 19.2507 72.4824 18.9024 72.899 18.5538C73.8708 17.7173 74.4264 16.5326 74.4264 15.2779V12.072H70.955V11.3055H78.8001V12.072H78.7994ZM68.316 0.0841562C68.3853 0.0841562 68.5243 0.0841562 68.6633 0.0841562C70.4684 -0.194542 72.3431 0.22368 73.8701 1.26889C74.4257 1.478 74.981 1.40841 75.4669 1.12936C75.5362 1.05978 75.6059 1.05978 75.6752 0.989839C75.8835 0.780727 75.8835 0.780727 75.8835 0.571616V0.432092H76.0918H76.3694V6.49562H75.8835V6.14698C75.6752 4.33492 74.7727 2.66203 73.2452 1.61682C71.7871 0.571266 69.9128 0.222981 68.1077 0.710791C67.9687 0.780378 67.8301 0.850315 67.6911 0.919902L68.316 0.0834568V0.0841562ZM104.279 13.3264H97.5448L95.2538 19.5294H94.5596L95.9481 15.8353L101.502 0.71114H102.058L102.266 1.33847L109 19.5294H106.57L104.279 13.3264H104.279ZM97.8224 12.5598H104.001L100.947 4.33562L97.8224 12.5598ZM85.3257 0.71149H87.7557V19.5294H85.3257V0.71149ZM44.1558 13.3267H37.4215L35.1305 19.5298H34.4363L35.8248 15.8357L41.3789 0.71149H41.9345L42.1428 1.33882L48.8771 19.5298H46.4471L44.1561 13.3267H44.1558ZM37.6991 12.5602H43.8782L40.8233 4.33597L37.6991 12.5602ZM24.5082 0.71184H26.9382V19.5298H24.5082V0.71184Z" fill="#101820"/>
</svg>
