<svg width="21" height="12" viewBox="0 0 21 12" fill="none" xmlns="http://www.w3.org/2000/svg">
<path d="M20.8883 10.8359C20.8673 10.7894 20.8438 10.744 20.8179 10.7C20.4545 10.0444 19.7585 9.23884 18.7299 8.2834L18.7081 8.2599L18.6964 8.24984L18.6863 8.23809H18.6746C18.2084 7.79057 17.9132 7.49185 17.7891 7.34194C17.6823 7.22395 17.6112 7.07797 17.5842 6.92107C17.5572 6.76418 17.5753 6.60282 17.6365 6.45586C17.7237 6.2321 18.0518 5.75437 18.6209 5.02269C18.9194 4.6367 19.1559 4.3268 19.3303 4.09297C20.5915 2.41479 21.1382 1.34299 20.9705 0.87757L20.9051 0.768489C20.8142 0.675418 20.6972 0.612207 20.5697 0.587248C20.3408 0.530642 20.1028 0.521503 19.8703 0.560396L16.7225 0.582213C16.6506 0.562174 16.5747 0.562174 16.5028 0.582213L16.3603 0.615774L16.3066 0.642626L16.263 0.676191C16.2162 0.706605 16.1753 0.745269 16.1422 0.790307C16.0974 0.84883 16.0607 0.913195 16.0332 0.981622C15.7056 1.83118 15.3132 2.65424 14.8593 3.44351C14.5893 3.89495 14.3411 4.28261 14.1147 4.61824C13.9466 4.87812 13.7569 5.12344 13.5478 5.35161C13.4185 5.48736 13.2795 5.61355 13.1319 5.7292C13.0078 5.82318 12.9139 5.86345 12.8485 5.85003L12.6624 5.80472C12.5589 5.73811 12.4741 5.64629 12.4158 5.53789C12.3474 5.40441 12.3048 5.25923 12.2901 5.10995C12.2683 4.94213 12.2548 4.79278 12.2515 4.66859C12.2481 4.54441 12.2515 4.3682 12.2515 4.14332C12.2515 3.91844 12.2615 3.76405 12.2615 3.68349C12.2615 3.40659 12.2615 3.10452 12.2783 2.78064C12.2951 2.45675 12.2984 2.19998 12.3051 2.01034C12.3119 1.82071 12.3169 1.61933 12.3169 1.40788C12.3208 1.23919 12.3079 1.07054 12.2783 0.904422C12.253 0.78355 12.2141 0.665903 12.1626 0.553682C12.1159 0.44615 12.0383 0.354997 11.9396 0.291886C11.8263 0.223505 11.7029 0.17365 11.574 0.144205C11.0882 0.046324 10.5937 -0.00147537 10.0981 0.00155824C8.74309 -0.012986 7.87215 0.0742843 7.48531 0.26336C7.32718 0.348634 7.18618 0.462425 7.06939 0.598996C6.93858 0.758424 6.92014 0.847367 7.01405 0.860793C7.45176 0.926242 7.76202 1.08399 7.94482 1.33068L8.01022 1.46326C8.08224 1.62392 8.13353 1.79309 8.16284 1.96671C8.21655 2.22939 8.24908 2.49596 8.2601 2.76385C8.2973 3.219 8.2973 3.67642 8.2601 4.13157C8.22488 4.51084 8.18966 4.80284 8.1578 5.01765C8.13452 5.19524 8.08478 5.36834 8.01022 5.53118C7.9714 5.61455 7.92714 5.69527 7.87773 5.77283C7.86354 5.79409 7.84531 5.81234 7.82407 5.82654C7.73 5.86328 7.62989 5.88207 7.5289 5.88192C7.39241 5.8691 7.26282 5.81594 7.1566 5.7292C6.98923 5.60696 6.8372 5.46497 6.7038 5.3063C6.50594 5.07216 6.32811 4.82179 6.17217 4.55783C5.9754 4.23786 5.77192 3.85859 5.56173 3.42002L5.38563 3.10284C5.27383 2.90034 5.12458 2.6033 4.93786 2.21173C4.75115 1.82015 4.58345 1.44256 4.43475 1.07895C4.38582 0.938268 4.2944 0.816286 4.17313 0.729895L4.11778 0.696329C4.06578 0.658943 4.00948 0.627956 3.95008 0.604031C3.86832 0.570159 3.78271 0.546484 3.69517 0.533545L0.699955 0.553682C0.394732 0.553682 0.186776 0.624164 0.0777678 0.761775L0.0324893 0.827227C0.00808891 0.882614 -0.00283186 0.943002 0.000624894 1.00343C0.00514438 1.10494 0.0272759 1.20488 0.0660298 1.2988C0.504299 2.32584 0.980022 3.31709 1.4932 4.27254C2.00638 5.22798 2.45359 5.99771 2.83484 6.58172C3.21385 7.16573 3.60014 7.71617 3.99368 8.23305C4.38723 8.74993 4.64773 9.08165 4.77519 9.22821C4.90265 9.37422 5.00327 9.4833 5.07538 9.56385L5.34874 9.82565C5.58926 10.055 5.84718 10.2654 6.12018 10.455C6.48302 10.7141 6.85859 10.955 7.24549 11.1766C7.69838 11.4296 8.18123 11.6247 8.68272 11.7572C9.20155 11.9038 9.74086 11.9645 10.2793 11.9368H11.5371C11.7529 11.9311 11.959 11.8456 12.1156 11.6968L12.1592 11.6414C12.1993 11.58 12.2293 11.5126 12.2481 11.4417C12.2754 11.344 12.2884 11.2428 12.2867 11.1413C12.2772 10.857 12.3014 10.5725 12.3588 10.2939C12.3943 10.0971 12.457 9.90618 12.545 9.72663C12.6062 9.60727 12.6854 9.49803 12.7798 9.40275C12.8347 9.34225 12.8972 9.28921 12.9659 9.245C12.9937 9.2294 13.0229 9.21647 13.0531 9.2064C13.2208 9.14766 13.4338 9.2064 13.6703 9.37422C13.9199 9.55626 14.1453 9.76943 14.3411 10.0086C14.549 10.2603 14.7972 10.5422 15.0891 10.8561C15.3197 11.1146 15.5759 11.349 15.8538 11.5559L16.0735 11.6868C16.2529 11.7893 16.4437 11.8704 16.642 11.9284C16.8381 11.9984 17.0487 12.0175 17.2541 11.9838L20.0514 11.9385C20.2749 11.9506 20.4975 11.9037 20.6971 11.8025C20.8232 11.7415 20.9206 11.6338 20.9688 11.5022C20.9967 11.3795 20.9967 11.2522 20.9688 11.1296C20.953 11.0305 20.9271 10.9332 20.8917 10.8393L20.8883 10.8359Z" fill="#707372"/>
</svg>
